<?xml version="1.0" encoding="utf-8"?>
<!-- Generator: Adobe Illustrator 27.0.0, SVG Export Plug-In . SVG Version: 6.00 Build 0)  -->
<svg version="1.1" id="Шар_1" xmlns="http://www.w3.org/2000/svg" xmlns:xlink="http://www.w3.org/1999/xlink" x="0px" y="0px"
	 viewBox="0 0 150 119" style="enable-background:new 0 0 150 119;" xml:space="preserve">
<style type="text/css">
	.st0{fill:#89D3FA;}
	.st1{fill:#F2C443;}
	.st2{fill:#F6F7FB;}
</style>
<g>
	<path class="st0" d="M94.8,76.8v-8c0-12-8.7-21.8-19.4-21.8C64.7,47.1,56,56.9,56,68.9v8c-4.4,0.9-7.8,4.8-7.8,9.5v22.1
		c0,5.3,4.4,9.7,9.7,9.7h34.9c5.4,0,9.7-4.4,9.7-9.7V86.3C102.6,81.7,99.2,77.8,94.8,76.8z M63.3,68.9c0-7.5,5.4-13.6,12.1-13.6
		c6.7,0,12.1,6.1,12.1,13.6v7.8H63.3V68.9z M77.2,104.2L77.2,104.2l-4.6,4.1L62.2,96.9l4.7-4.3l6.1,6.7l11.3-10.2l4.3,4.7
		L77.2,104.2z"/>
	<path class="st1" d="M25.1,36.5c-13.3,0-24,10.7-24,23.9c0,13.2,10.7,23.9,24,23.9c13.3,0,24-10.7,24-23.9
		C49.1,47.2,38.4,36.5,25.1,36.5z M27.7,72.3v6.4h-4.2v-6.2c-2.8-0.3-6-1.5-8.2-3.4l2.8-4.3c2.7,1.7,5.1,2.7,7.7,2.7
		c2.1,0,3.2-0.7,3.2-1.9c0-3.6-12.5-2.9-12.5-10.8c0-3.7,2.7-6.3,7.1-6.9v-5.6h4.2v5.6c3,0.4,5.1,1.7,6.9,3.5l-3.1,3.6
		c-2-1.4-3.6-2.2-6-2.2c-1.9,0-3,0.7-3,2c0,3,12.5,2.7,12.5,10.5C35,68.6,32.4,71.5,27.7,72.3z"/>
	<path class="st1" d="M124.9,36.5c-13.3,0-24,10.7-24,23.9c0,13.2,10.7,23.9,24,23.9c13.3,0,24-10.7,24-23.9
		C148.9,47.2,138.1,36.5,124.9,36.5z M127.4,72.3v6.4h-4.2v-6.2c-2.8-0.3-6-1.5-8.2-3.4l2.8-4.3c2.7,1.7,5.1,2.7,7.7,2.7
		c2.1,0,3.2-0.7,3.2-1.9c0-3.6-12.5-2.9-12.5-10.8c0-3.7,2.7-6.3,7.1-6.9v-5.6h4.2v5.6c3,0.4,5.1,1.7,6.9,3.5l-3.1,3.6
		c-2-1.4-3.6-2.2-6-2.2c-1.9,0-3,0.7-3,2c0,3,12.5,2.7,12.5,10.5C134.7,68.6,132.2,71.5,127.4,72.3z"/>
	<path class="st1" d="M75.4,0.9c-10.9,0-19.7,8.8-19.7,19.6c0,10.8,8.8,19.6,19.7,19.6c10.9,0,19.7-8.8,19.7-19.6
		C95.1,9.7,86.3,0.9,75.4,0.9z M77.5,30.3v5.2H74v-5.1c-2.3-0.3-5-1.3-6.8-2.8l2.3-3.5c2.2,1.4,4.2,2.2,6.4,2.2
		c1.7,0,2.6-0.6,2.6-1.6c0-2.9-10.3-2.4-10.3-8.9c0-3,2.2-5.2,5.8-5.7V5.5h3.4v4.6c2.4,0.3,4.2,1.4,5.7,2.9l-2.6,3
		c-1.7-1.2-3-1.8-4.9-1.8c-1.6,0-2.4,0.6-2.4,1.6c0,2.5,10.3,2.2,10.3,8.6C83.5,27.3,81.4,29.6,77.5,30.3z"/>
	<ellipse class="st2" cx="42.9" cy="26.9" rx="5.3" ry="5.3"/>
	<ellipse class="st2" cx="107.9" cy="26.9" rx="5.3" ry="5.3"/>
	<ellipse class="st2" cx="115" cy="97" rx="5.3" ry="5.3"/>
	<ellipse class="st2" cx="35" cy="97" rx="5.3" ry="5.3"/>
</g>
</svg>
