<?xml version="1.0" encoding="utf-8"?>
<!-- Generator: Adobe Illustrator 27.0.0, SVG Export Plug-In . SVG Version: 6.00 Build 0)  -->
<svg version="1.1" id="Шар_1" xmlns="http://www.w3.org/2000/svg" xmlns:xlink="http://www.w3.org/1999/xlink" x="0px" y="0px"
	 viewBox="0 0 153 119" style="enable-background:new 0 0 153 119;" xml:space="preserve">
<style type="text/css">
	.st0{fill:#3F4550;}
	.st1{fill:#89D4FB;}
	.st2{fill:#F4C84F;}
</style>
<g>
	<g>
		<ellipse class="st0" cx="30" cy="28.6" rx="15.8" ry="15.5"/>
		<path class="st0" d="M38.4,45.6C34.7,54,33.6,66,35,81.5H4.7c-2.3,0-4.2-1.9-4.2-4.2V63.7c0-10,8.3-18.1,18.4-18.1h3.3l7.9,7.9
			l8.1-7.9H38.4z"/>
	</g>
	<g>
		<ellipse class="st0" cx="123" cy="28.6" rx="15.8" ry="15.5"/>
		<path class="st0" d="M114.6,45.6c3.6,8.4,4.8,20.4,3.4,35.9h30.2c2.3,0,4.2-1.9,4.2-4.2V63.7c0-10-8.3-18.1-18.4-18.1h-3.3
			l-7.9,7.9l-8.1-7.9H114.6z"/>
	</g>
	<path class="st1" d="M111.6,63.3v18.1h-7.6c0-14.8-12.2-26.7-27.2-26.7c-15,0-27.2,12-27.2,26.7h-7.6V63.3
		c0-13,10.1-23.8,22.9-25.3l11.9,10.8L88.7,38C101.6,39.4,111.6,50.3,111.6,63.3z"/>
	<ellipse class="st1" cx="76.9" cy="18.6" rx="18.4" ry="18.1"/>
	<path class="st2" d="M113.8,113.7L93,93.3c2.7-3.4,4.4-7.7,4.4-12.4c0-11.1-9.2-20.1-20.4-20.1c-11.3,0-20.4,9-20.4,20.1
		s9.2,20.1,20.4,20.1c4.5,0,8.6-1.4,12-3.8l20.9,20.5c1.1,1.1,2.9,1.1,4,0C114.9,116.6,114.9,114.8,113.8,113.7z M62.1,80.9
		c0-8,6.6-14.5,14.8-14.5c8.2,0,14.8,6.5,14.8,14.5c0,8-6.6,14.5-14.8,14.5C68.7,95.4,62.1,88.9,62.1,80.9z"/>
</g>
</svg>
