<svg version="1.1" id="Шар_1" xmlns="http://www.w3.org/2000/svg" x="0" y="0" viewBox="0 0 150 119" style="enable-background:new 0 0 150 119" xml:space="preserve"><style>.st2{fill:#f6f7fb}</style><path d="M94.8 76.8v-8c0-12-8.7-21.8-19.4-21.8-10.7.1-19.4 9.9-19.4 21.9v8c-4.4.9-7.8 4.8-7.8 9.5v22.1c0 5.3 4.4 9.7 9.7 9.7h34.9c5.4 0 9.7-4.4 9.7-9.7V86.3c.1-4.6-3.3-8.5-7.7-9.5zm-31.5-7.9c0-7.5 5.4-13.6 12.1-13.6 6.7 0 12.1 6.1 12.1 13.6v7.8H63.3v-7.8zm13.9 35.3-4.6 4.1-10.4-11.4 4.7-4.3 6.1 6.7 11.3-10.2 4.3 4.7-11.4 10.4z" style="fill:#89d3fa"/><path d="M25.1 36.5c-13.3 0-24 10.7-24 23.9s10.7 23.9 24 23.9 24-10.7 24-23.9-10.7-23.9-24-23.9zm2.6 35.8v6.4h-4.2v-6.2c-2.8-.3-6-1.5-8.2-3.4l2.8-4.3c2.7 1.7 5.1 2.7 7.7 2.7 2.1 0 3.2-.7 3.2-1.9 0-3.6-12.5-2.9-12.5-10.8 0-3.7 2.7-6.3 7.1-6.9v-5.6h4.2v5.6c3 .4 5.1 1.7 6.9 3.5L31.6 55c-2-1.4-3.6-2.2-6-2.2-1.9 0-3 .7-3 2 0 3 12.5 2.7 12.5 10.5-.1 3.3-2.7 6.2-7.4 7zm97.2-35.8c-13.3 0-24 10.7-24 23.9s10.7 23.9 24 23.9 24-10.7 24-23.9-10.8-23.9-24-23.9zm2.5 35.8v6.4h-4.2v-6.2c-2.8-.3-6-1.5-8.2-3.4l2.8-4.3c2.7 1.7 5.1 2.7 7.7 2.7 2.1 0 3.2-.7 3.2-1.9 0-3.6-12.5-2.9-12.5-10.8 0-3.7 2.7-6.3 7.1-6.9v-5.6h4.2v5.6c3 .4 5.1 1.7 6.9 3.5l-3.1 3.6c-2-1.4-3.6-2.2-6-2.2-1.9 0-3 .7-3 2 0 3 12.5 2.7 12.5 10.5-.1 3.3-2.6 6.2-7.4 7zM75.4.9C64.5.9 55.7 9.7 55.7 20.5s8.8 19.6 19.7 19.6c10.9 0 19.7-8.8 19.7-19.6S86.3.9 75.4.9zm2.1 29.4v5.2H74v-5.1c-2.3-.3-5-1.3-6.8-2.8l2.3-3.5c2.2 1.4 4.2 2.2 6.4 2.2 1.7 0 2.6-.6 2.6-1.6 0-2.9-10.3-2.4-10.3-8.9 0-3 2.2-5.2 5.8-5.7V5.5h3.4v4.6c2.4.3 4.2 1.4 5.7 2.9l-2.6 3c-1.7-1.2-3-1.8-4.9-1.8-1.6 0-2.4.6-2.4 1.6 0 2.5 10.3 2.2 10.3 8.6 0 2.9-2.1 5.2-6 5.9z" style="fill:#f2c443"/><circle class="st2" cx="42.9" cy="26.9" r="5.3"/><circle class="st2" cx="107.9" cy="26.9" r="5.3"/><circle class="st2" cx="115" cy="97" r="5.3"/><circle class="st2" cx="35" cy="97" r="5.3"/></svg>