<svg version="1.1" id="Шар_1" xmlns="http://www.w3.org/2000/svg" x="0" y="0" viewBox="0 0 153 119" style="enable-background:new 0 0 153 119" xml:space="preserve"><style>.st0{fill:#3f4550}.st1{fill:#89d4fb}</style><ellipse class="st0" cx="30" cy="28.6" rx="15.8" ry="15.5"/><path class="st0" d="M38.4 45.6C34.7 54 33.6 66 35 81.5H4.7c-2.3 0-4.2-1.9-4.2-4.2V63.7c0-10 8.3-18.1 18.4-18.1h3.3l7.9 7.9 8.1-7.9h.2z"/><ellipse class="st0" cx="123" cy="28.6" rx="15.8" ry="15.5"/><path class="st0" d="M114.6 45.6c3.6 8.4 4.8 20.4 3.4 35.9h30.2c2.3 0 4.2-1.9 4.2-4.2V63.7c0-10-8.3-18.1-18.4-18.1h-3.3l-7.9 7.9-8.1-7.9h-.1z"/><path class="st1" d="M111.6 63.3v18.1H104c0-14.8-12.2-26.7-27.2-26.7s-27.2 12-27.2 26.7H42V63.3c0-13 10.1-23.8 22.9-25.3l11.9 10.8L88.7 38c12.9 1.4 22.9 12.3 22.9 25.3z"/><ellipse class="st1" cx="76.9" cy="18.6" rx="18.4" ry="18.1"/><path d="M113.8 113.7 93 93.3c2.7-3.4 4.4-7.7 4.4-12.4 0-11.1-9.2-20.1-20.4-20.1-11.3 0-20.4 9-20.4 20.1S65.8 101 77 101c4.5 0 8.6-1.4 12-3.8l20.9 20.5c1.1 1.1 2.9 1.1 4 0 1-1.1 1-2.9-.1-4zM62.1 80.9c0-8 6.6-14.5 14.8-14.5 8.2 0 14.8 6.5 14.8 14.5s-6.6 14.5-14.8 14.5c-8.2 0-14.8-6.5-14.8-14.5z" style="fill:#f4c84f"/></svg>